<?xml version="1.0" encoding="UTF-8"?>
<svg id="Layer_1" data-name="Layer 1" xmlns="http://www.w3.org/2000/svg" viewBox="0 0 596.96 133.44">
  <defs>
    <style>
      .cls-1 {
        fill: #fff;
      }

      .cls-2 {
        fill: #d6254d;
      }
    </style>
  </defs>
  <path class="cls-1" d="M341.62,133.32l-19.67-25.85v20.46c0,.08.3,1.39.35,1.56.58,1.7,2.08,2,3.73,1.91v1.68h-11.04v-1.68c3.91.25,4.36-1.84,4.57-5.13.29-4.51.59-17.03-.31-21.02-.52-2.29-1.9-2.35-3.92-2.79l-.1-1.45h8.28l18.35,24.17v-19.75c0-.11-.47-1.38-.58-1.57-.74-1.32-2.14-1.23-3.5-1.18v-1.68h11.28v1.68c-2.7-.18-4.21.42-4.53,3.26l-.03,27.38h-2.88Z"/>
  <path class="cls-1" d="M586.8,133.32l-19.91-25.85v19.99c0,.1.29,1.6.35,1.81.54,1.94,1.86,2.21,3.73,2.14v1.68h-11.04v-1.68c3.61.19,4.34-1.45,4.57-4.66.38-5.44.38-13.97,0-19.41-.22-3.18-.83-4.47-4.22-4.88l-.1-1.45h8.28l18.35,24.17v-19.99c0-.29-.78-1.74-1.11-2-.84-.66-1.97-.52-2.97-.51v-1.68h11.28v1.68c-2.91-.22-4.21.56-4.53,3.5l-.03,27.14h-2.64Z"/>
  <path class="cls-1" d="M301.08,133.32l-19.79-25.85c.09,6.2-.52,12.88-.13,19.04.19,3.02.44,5.11,4.09,4.9v1.68h-11.04v-1.68c3.61.19,4.34-1.45,4.57-4.66.38-5.47.39-14.18,0-19.65-.23-3.16-.95-4.26-4.22-4.64l-.1-1.45h8.28l18.24,24.18c.55.09.33-.24.36-.6.43-4.9.37-14.28-.27-19.13-.35-2.67-1.62-2.61-3.95-3l-.1-1.45h11.28v1.68c-2.91-.22-4.21.56-4.53,3.5l-.03,27.14h-2.64Z"/>
  <path class="cls-1" d="M538.82,133.32c-1.36.16-4.88.16-6.24,0-11.28-1.35-17.77-14.19-12.28-24.1,8.55-15.4,34.26-9.15,32.66,9.61-.59,6.96-7.19,13.65-14.15,14.48ZM533.73,102.99c-12.58,1.51-13.57,24.42-1.73,27.68,7.91,2.18,14.35-2.52,15.43-10.43,1.26-9.17-3.15-18.52-13.7-17.26Z"/>
  <path class="cls-1" d="M375.93,133.32c-1.37.16-4.62.16-6,0-8.2-.93-14.88-8.91-14.39-17.11.94-15.59,21.67-21.11,31.18-9.33,7.98,9.89,1.66,25.04-10.79,26.44ZM370.83,102.99c-13.66,1.84-13.81,29.87,3.51,28.15,15.29-1.52,14.05-30.52-3.51-28.15Z"/>
  <polygon class="cls-1" points="0 9.58 9.12 8.26 13.43 0 17.37 8.16 26.39 9.58 19.95 16.21 21.35 25.13 13.31 20.92 5.04 25.13 6.59 16.03 0 9.82 0 9.58"/>
  <path class="cls-1" d="M410.24,133.32l-11.63-27.77c-1.15-1.96-2.34-2.67-4.58-3.09l-.1-1.45h13.67v1.68c-4.68-.27-4.04,1.55-2.88,4.91,1.93,5.61,4.72,12.83,7.19,18.2.11.24.16.56.49.59,2.16-6.32,5.52-12.55,7.62-18.85.96-2.89,1.6-5.21-2.58-4.84v-1.68h10.08v1.67c-2.45-.08-3.73,1.37-4.52,3.51l-11.07,27.13h-1.68Z"/>
  <path class="cls-2" d="M16.31,78.27v48.35h205.12v6.46H10.08v-54.69c-8.12-4.2-4.51-16.23,4.81-14.61,7.19,1.24,8.25,11.94,1.43,14.49Z"/>
  <path class="cls-1" d="M50.14,96.94h171.29v6.46H44.02l-.36-.36v-24.65c-7.76-4.01-4.89-15.56,4.21-14.73,7.71.7,9.11,11.45,2.27,14.73v18.55Z"/>
  <path class="cls-2" d="M87.32,9.34h134.11v6.46H87.32c-2.37,6.25-11.86,5.76-14.03-.49-3.25-9.39,9.93-14.77,14.03-5.98Z"/>
  <path class="cls-1" d="M221.43,38.78v6.22H87.68c-2.71,6.36-12.53,6.05-14.53-.58-2.84-9.43,10.13-14.3,14.53-5.64h133.75Z"/>
  <path class="cls-2" d="M221.43,68.22v6.22H87.68c-3.16,6.33-12.61,5.98-14.59-1-2.61-9.22,10.52-13.84,14.59-5.22h133.75Z"/>
  <path class="cls-1" d="M297.12,9.34l10.8,24.66,11.04-24.66h9.24v1.67c-2.5-.02-3.77,1.03-4.05,3.5.4,6.95-.62,14.66-.03,21.52.28,3.22,1.49,3.74,4.55,3.95v1.42s-13.66,0-13.66,0v-1.42c1.53-.25,3.16-.1,4.04-1.6.55-.93.7-3.32.77-4.5.34-6.3-.18-12.74-.13-19.04l-.57.16-11.91,26.66-.72.26-12.36-27.06v22.14c0,.09.42,1.24.51,1.4.9,1.57,2.48,1.33,4.03,1.6v1.42s-11.74,0-11.74,0v-1.42c3.08-.26,4.31-.73,4.57-3.95.54-6.91-.4-14.54-.04-21.52-.28-2.64-1.49-3.3-4.04-3.51v-1.67s9.7,0,9.7,0Z"/>
  <path class="cls-1" d="M270.49,55.29c5.85.59,10.61,4.94,8.29,11.14-1.29,3.44-4.07,4.38-7.33,5.14-.29.07-.43-.18-.36.35l10.07,11.98c1.33,1.06,2.94,1.38,4.53,1.82l.03,1.64h-7.8l-10.67-13.53c-1.15-1.38-2.77-1.98-4.56-1.79v10.65c0,.09.42,1.24.51,1.4.95,1.65,3.57,1.6,5.25,1.59v1.68h-14.64v-1.68c3.54-.05,4.33-1.09,4.57-4.42.4-5.63.39-14.5,0-20.13-.24-3.46-.75-4.08-4.3-4.44l-.03-1.41h16.43ZM262.69,69.89h5.64c.73,0,3.39-1.2,3.97-1.79,2.16-2.19,2.13-8.14-.65-9.9-.38-.24-2.28-1-2.6-1h-6l-.36.36v12.33Z"/>
  <path class="cls-1" d="M364.65,41.41v-1.42c4.03-.22,4.56-1.11,4.81-4.91.36-5.55.33-13.6,0-19.17-.2-3.4-.45-4.86-4.33-4.9v-1.67c4.25.16,8.59-.21,12.84-.01,5.91.27,13.04,1.7,12.34,9.22-.46,4.91-3.77,6.09-7.8,7.3-.27.08-.43-.16-.35.36l9.35,11.26c1.32,1.41,3.17,2.1,5.06,2.38l.23,1.57h-8.04l-10.43-13.29c-1.2-1.52-2.64-2-4.56-1.79v10.89c0,.15.55,1.24.71,1.44,1.08,1.36,3.46,1.16,5.05,1.31v1.44h-14.88ZM373.77,24.18h5.16c.81,0,3.13-.91,3.84-1.44,2.92-2.17,2.95-8.56-.33-10.45-.36-.2-1.79-.8-2.07-.8h-6.24l-.36.36v12.33Z"/>
  <path class="cls-1" d="M517.35,55.29c7.27.74,12.23,6.98,6.15,12.84l-4.59,2.24c5.93,0,12.04,4.55,9.95,11.01-1.77,5.47-7.85,5.82-12.7,6s-10.18-.17-15.25-.01v-1.68c3.26-.05,4.78-.49,5.05-3.94.55-6.99-.41-14.7-.03-21.76-.34-2.97-1.66-2.9-4.27-3.28l-.03-1.41h15.71ZM510.27,69.41h4.92c1.1,0,3.39-.99,4.21-1.79,2.19-2.14,1.99-7.88-.8-9.51-.35-.2-2.18-.91-2.45-.91h-5.52l-.36.36v11.85ZM510.27,71.69v10.05c0,.24.57,1.58.76,1.88,1.25,1.99,4.64,2.02,6.73,1.77,8.1-.98,7.44-11.55.66-13.45-1.24-.35-6.07-.77-7.32-.62-.35.04-.62.03-.83.37Z"/>
  <path class="cls-1" d="M511.23,33.51V13.77c0-1.96-2.36-2.98-4.08-2.75l.36-1.68h10.92v1.68c-1.36.01-3.2.15-3.94,1.45-.1.18-.62,1.68-.62,1.78v27.65l-2.78-.22-19.78-25.87v20.23c0,.1.29,1.61.35,1.8.56,1.87,2.05,1.91,3.7,2.17l.03,1.41h-11.04l.03-1.41c3.78-.23,4.3-1.4,4.54-4.92.37-5.39.37-13.78,0-19.17-.22-3.24-.7-4.77-4.31-4.91-.02-.51-.2-1.44.38-1.63l8,.09,18.23,24.05Z"/>
  <path class="cls-1" d="M443.58,79.47v-19.27c0-.12-.44-1.66-.53-1.86-.68-1.43-2.18-1.35-3.52-1.63l-.03-1.41h11.28v1.42c-4.36.07-4.6,2.15-4.81,5.87-.46,8.18.36,16.8.01,25.02l-2.59-.05-19.72-25.8v20.94c0,.09.45,1.46.53,1.62.62,1.21,2.32,1.39,3.55,1.37v1.68h-11.28v-1.68c2.84.03,4.31-.75,4.57-3.7.6-7.01-.45-14.9-.04-22-.17-1.41-.73-2.44-2.13-2.9s-2.25.34-1.92-1.79h8.28l18.35,24.17Z"/>
  <path class="cls-1" d="M392.19,54.88c12.16-1.24,22.13,8.63,18.98,20.86-3.55,13.81-24.02,16.03-31.6,4.28-6.74-10.44.54-23.9,12.62-25.14ZM392.18,57.27c-12.33,1.66-13.55,25.18-.48,27.88,19.17,3.96,19.97-30.51.48-27.88Z"/>
  <path class="cls-1" d="M589.92,55.29l.24,7.18h-1.43c-.13-2.24-1.46-4.24-3.61-4.91-.54-.17-2.31-.6-2.76-.6h-7.68l-.36.36v12.33c3.46.05,7.93-.35,7.93-4.78h1.43s0,11.24,0,11.24h-1.43c.03-4.42-4.5-4.83-7.93-4.79v10.65c0,.96,1.14,2.34,2.03,2.76,3.15,1.49,10.44,1.12,12.57-2.09,1.02-1.54.72-4.18,2.92-3.67l-.48,7.78-.36.6h-25.55v-1.68c3.53.02,4.34-1.12,4.57-4.42.4-5.63.39-14.5,0-20.13-.24-3.46-.75-4.08-4.3-4.44l-.03-1.41h24.23Z"/>
  <path class="cls-1" d="M357.94,9.34l.48,7.42h-1.68c-.07-2.46-1.37-4.29-3.71-5.04-.31-.1-1.74-.46-1.93-.46h-8.52c.08.23-.24.52-.24.6v11.73l.4.32c3.28.02,7.75-.46,7.52-4.75h1.44s0,11.25,0,11.25h-1.44c.3-4.39-4.55-4.96-7.92-4.79v10.17c0,1.38,1.09,2.87,2.41,3.34,3.64,1.32,10.45,1.03,12.56-2.77.82-1.47.45-3.58,2.55-3.09l-.48,8.14h-25.91v-1.42c2.87-.23,4.3-.61,4.57-3.71.61-7.09-.45-15.06-.04-22.24-.31-2.62-1.68-2.83-4.04-3.03v-1.66s23.98,0,23.98,0Z"/>
  <path class="cls-1" d="M312.11,55.29l.48,7.18h-1.68c-.06-2.75-1.67-4.54-4.31-5.16-1.34-.31-8.68-.65-9.61-.22-.11.05-.48.43-.48.48v12.09c3.44.06,8.11-.28,7.92-4.79h1.44s0,11.25,0,11.25h-1.44c.24-4.4-4.59-4.85-7.92-4.79v10.41c0,1.36,1.33,2.72,2.57,3.18,3.47,1.3,10.23.92,12.35-2.65.89-1.5.4-3.79,2.59-3.28l-.48,8.38h-25.91v-1.68c3.08-.12,4.31-.48,4.57-3.7.56-7.14-.41-15.02-.04-22.24-.2-1.41-.61-2.32-2.07-2.72-1.35-.37-2.31.44-1.98-1.73h23.99Z"/>
  <path class="cls-1" d="M355.78,72.77v9.45c0,.11.44,1.67.53,1.86.76,1.58,3.72,1.68,5.23,1.61v1.68h-14.64v-1.68c3.08-.12,4.31-.48,4.57-3.7.56-7.14-.41-15.02-.04-22.24-.2-1.41-.61-2.32-2.07-2.72-1.35-.37-2.31.44-1.98-1.73h16.19c3.37,0,8.34,2.94,8.76,6.58,1.19,10.44-8.67,11.16-16.55,10.89ZM355.78,70.61h4.92c.98,0,3.38-.91,4.2-1.55,2.91-2.27,2.96-8.8-.17-10.86-.48-.32-2.11-1-2.6-1h-6.12c.08.24-.24.52-.24.6v12.81Z"/>
  <path class="cls-1" d="M17.33,37.52c.47.45,6.94.98,8.22,1.26.32.07.61-.03.83.36l-6.44,6.28,1.4,8.92-8.24-4.01-8.07,4.25,1.39-9.17L.24,39.14c.22-.38.52-.28.83-.36,2.47-.62,5.41-.48,7.9-1.22l4.34-8.11,4.02,8.08Z"/>
  <path class="cls-1" d="M50.92,37.52c.59.49,6.86.96,8.22,1.26.32.07.61-.03.83.36l-6.41,6.49,1.38,8.71-8.03-4.06-8.28,4.06,1.55-8.87-6.34-6.33c.23-.39.51-.29.83-.36,1.28-.28,7.72-.85,8.22-1.26l4.02-8.07,4.02,8.07Z"/>
  <path class="cls-1" d="M59.97,9.58c.11.46-.17.46-.4.67-2.09,1.9-4.11,3.85-6.02,5.93l1.62,8.95-8.28-4.22-8.28,4.22,1.62-8.95-6.66-6.61,9.12-1.32L46.9,0l4.2,8.26,8.88,1.32Z"/>
  <path class="cls-1" d="M445.74,41.41h-1.67s-.73-3.11-.73-3.11c-6.96,5.64-19.24,4.86-23.94-3.28-4.19-7.25-2.58-18.73,4.72-23.44,5.51-3.55,13.03-3.36,18.38.38l.86-2.6,1.18-.03.48,9.58-1.65-.03c-2.47-9.63-15.55-10.53-19.27-1.09-2.74,6.95-1.97,19.75,6.94,21.64,6.42,1.37,11.25-2.15,13-8.21l1.69-.11v10.29Z"/>
  <path class="cls-1" d="M474.77,55.29l.48,8.38-1.66-.03c-1.02-4.42-4.12-7.4-8.91-6.57-4.4.76-5.32,5.58-1.89,8.37,4.03,3.28,13.9,4.98,14.79,11.09,1.4,9.66-9.8,13.54-17.21,9.75-.58-.3-1.64-1.26-2.04-1.33-.53-.09-.81,1.5-1.32,1.8-.31.18-.63.13-.96.12l-.48-9.34,1.41.03c1.18,5.66,5.39,8.53,11.16,7.84,3.43-.41,5.92-3.61,4.72-7.05-1.93-5.5-15.25-5.35-16.06-13.66-.87-9.01,9.5-12.85,15.92-7.51.79-.76.61-2.2,2.04-1.91Z"/>
  <path class="cls-1" d="M540.71,11.22c.58-1.01.53-1.99,1.95-1.65l.48,8.38-1.65-.03c-1.3-4.53-4.16-7.46-9.21-6.61-3.06.51-4.91,4.2-3.16,6.87,3.03,4.63,14.12,5.32,16.02,11.78,3.16,10.77-12.28,15.5-19.15,9.05-.14-.06-.88,2.64-2.06,1.81l-.7-9.23,1.45.11c1.12,5.55,5.42,8.69,11.11,8.01s6.96-7,1.9-10.22c-5.71-3.64-13.82-3.91-13.04-12.86.54-6.25,7.51-9.03,12.96-6.93.68.26,2.71,1.75,3.09,1.52Z"/>
  <path class="cls-1" d="M337.83,55.35c.25-.13.61-.05.9-.04l.49,8.37c-2.03.48-1.92-1.67-2.78-3.09-1.62-2.67-4.04-3.91-7.17-3.61-4.76.45-6.1,5.59-2.36,8.57,4.22,3.37,14.03,4.82,14.71,11.41.83,8.08-6.41,11.42-13.48,10.58-2.49-.3-3.93-1.52-6.05-2.58-.53.89-.68,2.17-2.05,1.93l-.48-9.34,1.41.03c1.17,5.53,5.27,8.43,10.94,7.87,3.7-.37,5.96-3.2,5-6.89-1.43-5.5-15.16-5.37-16.08-13.87-.96-8.92,9.56-12.81,15.89-7.48.28,0,.91-1.74,1.13-1.86Z"/>
  <path class="cls-1" d="M427.03,133.08l.02-1.65c1.5-.19,2.77-.7,3.68-1.95l11.44-28.44h2.1c3.21,7.89,6.08,16.11,9.51,23.9,1.2,2.72,2.45,6.82,6.11,6.47v1.68h-13.68v-1.68c1.31.1,3.96-.11,4.07-1.8.05-.78-2.29-7.55-2.74-8.01-.61-.62-9.32,0-10.81-.25l-.38.17c-.55,1.94-3.19,6.86-2.43,8.65.51,1.19,2.04,1.36,3.18,1.26v1.68h-10.08ZM437.34,119.44h9.36l-4.44-11.97-4.92,11.97Z"/>
  <path class="cls-1" d="M448.86,41.41l.1-1.45c2.01-.45,3.06-.77,4.1-2.61l11.12-27.87h1.97c3.53,8.07,6.3,16.75,9.94,24.74.64,1.4,1.94,4.41,3.25,5.13,1.39.77,3.09-.25,2.62,2.05h-13.67l.03-1.41c2.59-.43,4.34-.08,3.7-3.39-.11-.58-2.19-6.19-2.41-6.45s-.41-.22-.71-.25c-1.95-.24-7.91-.24-9.86,0-.92.11-.83.52-1.18,1.22-.7,1.42-2.53,6.32-1.92,7.65.39.86,2.11,1.16,2.98,1.21v1.43s-10.06,0-10.06,0ZM468.53,27.77l-4.44-11.97-4.68,11.97h9.12Z"/>
  <path class="cls-1" d="M251.66,41.41l.1-1.45c2.04-.39,3.12-.99,4.1-2.85l11.14-27.66h1.69c3.47,7.61,6.11,15.67,9.48,23.33.7,1.6,2.25,5.53,3.63,6.43s3.19-.1,2.72,2.19h-13.43l.03-1.4c1.09-.54,2.84.1,3.51-1.16,1.02-1.9-2.01-6.75-2.37-8.9l-11.27.12c-.41,1.21-1,2.36-1.42,3.56-1.07,3.04-2.64,6.3,2.15,6.36v1.43s-10.06,0-10.06,0ZM271.33,27.77l-4.8-11.97-4.56,11.97h9.36Z"/>
  <path class="cls-1" d="M491.8,101.01l.48,7.9-1.65-.03c-.47-4.47-2.46-6.03-6.87-6.19-1.32-.05-4.77-.08-5.11,1.36.29,7.32-.57,15.2-.06,22.46.28,3.95,1.53,4.91,5.53,4.9v1.68h-15.83v-1.68c4,.01,5.25-.95,5.53-4.9l-.12-22.64c-.32-.99-2.2-1.13-3.13-1.18-1.28-.07-4.09.12-5.29.46-2.62.76-3.32,3.31-3.48,5.74h-1.43s0-7.89,0-7.89h31.43Z"/>
  <path class="cls-1" d="M546.98,55.29l-.03,1.41c-3.07.3-3.79.93-4.05,3.98-.44,5.17-.42,14.44-.01,19.63.21,2.73.95,4.29,3.79,4.84s8.65.48,10.97-1.38c1.25-1,1.94-3.24,2.3-4.76l1.66-.02-.72,8.38h-26.87v-1.68c3.08-.12,4.31-.48,4.57-3.7.56-7.14-.41-15.02-.04-22.24-.2-1.41-.61-2.32-2.07-2.72-1.35-.37-2.31.44-1.98-1.73h12.47Z"/>
  <path class="cls-1" d="M510.99,101.01v1.68c-3.01-.23-3.79,1.29-4.05,3.98-.51,5.31-.43,14.94-.04,20.32.23,3.13,1.13,4.65,4.57,4.42v1.68h-13.44v-1.68c3.61.19,4.34-1.45,4.57-4.66.38-5.44.38-13.97,0-19.41-.22-3.18-.83-4.47-4.22-4.88l-.1-1.45h12.71Z"/>
  <path class="cls-1" d="M266.77,101.01v1.68c-2.71-.19-3.77.91-4.05,3.5.39,6.87-.62,14.5-.04,21.28.27,3.08,1.39,4.15,4.57,3.94v1.68h-13.44v-1.68c3.91.25,4.36-1.84,4.57-5.13.29-4.51.59-17.03-.31-21.02-.52-2.28-1.9-2.35-3.92-2.79l-.1-1.45h12.71Z"/>
  <path class="cls-1" d="M495.88,55.29l-.02,1.41c-3.06.29-3.75,1.32-4.02,4.24-.5,5.32-.42,14.7-.04,20.08.23,3.28.94,4.76,4.57,4.66v1.68h-13.44v-1.68c3.61.04,4.36-1.36,4.57-4.65.35-5.53.41-14.15,0-19.65-.25-3.28-.84-4.35-4.3-4.68l-.02-1.41h12.71Z"/>
  <path class="cls-1" d="M411.67,9.34v1.67c-3.09.14-3.78,1.38-4.05,4.23-.35,3.76-.55,19.29.32,22.36.67,2.35,2.1,2.07,4.2,2.4v1.42s-13.42,0-13.42,0l.03-1.41c3.43-.29,4.28-1.03,4.54-4.44.41-5.37.47-15.25-.04-20.56-.27-2.78-1.16-3.79-4.04-3.99v-1.66s12.46,0,12.46,0Z"/>
  <path class="cls-1" d="M562.33,24.89h3.12s-.23,1.52-.23,1.52l-3.4.29c-1.27,4.47-2.11,9.09-3.4,13.56s-3.41,11.66-9.7,9.57c-1.9-.63-2.22-3.81-.13-4.07s1.15,2.65,3.29,2.35c1.19-.17,1.87-2.4,2.17-3.36,1.86-5.82,2.81-12.21,4.68-18.07l-3.12-.12.36-1.44,3.22-.26c1.19-4.69,3.19-11.93,9.44-10.93,2.28.37,4.61,3.16,2.16,4.44-2.95,1.55-2.13-4.63-4.86-2.7-1.81,1.29-3.24,6.99-3.6,9.21Z"/>
  <path class="cls-1" d="M573.31,23.52c1.87-.23,3.76.37,4.95,1.87,5.07,6.35-4.33,20.3-11.21,15.5-5.85-4.08-.65-16.53,6.26-17.37ZM573.54,25.18c-2.32.52-4.38,5.45-4.9,7.56-.41,1.66-1,4.92-.08,6.4,1.94,3.1,5.19-1.53,6.05-3.31,1.09-2.27,4.12-11.81-1.07-10.65Z"/>
  <path class="cls-1" d="M596.57,26.74c-1.44,1.78-3.27-.63-3.88-.65-1.03-.03-2.83,2.53-3.35,3.37-2.23,3.61-3.32,7.95-4.73,11.92l-3.08.03c.88-3.48,2.27-6.84,3.24-10.29.22-.79,1.45-4.58.83-5.02-1.57.07-2.75,1.55-3.59,2.76-1.44-.18-.76-.88-.2-1.65.94-1.28,3.74-3.76,5.36-3.76,1.97,0,1.49,2.36,1.56,3.72.01.27-.16.66.24.59.98-2.18,4.66-5.8,7.19-4.18.92.59,1.04,2.38.42,3.15Z"/>
</svg>